<?xml version="1.0" encoding="utf-8"?>
<!-- Generator: Adobe Illustrator 22.0.1, SVG Export Plug-In . SVG Version: 6.00 Build 0)  -->
<svg version="1.1" id="Capa_1" xmlns="http://www.w3.org/2000/svg" xmlns:xlink="http://www.w3.org/1999/xlink" x="0px" y="0px"
	 viewBox="0 0 356.7 131" style="enable-background:new 0 0 356.7 131;" xml:space="preserve">
<style type="text/css">
	.st0{enable-background:new    ;}
	.st1{fill:#121212;}
</style>
<g>
	<g class="st0">
		<path class="st1" d="M187.9,64.4c-0.3,0-0.6-0.1-0.8-0.3c-0.2-0.2-0.3-0.5-0.3-0.8v-23c0-0.3,0.1-0.6,0.3-0.8
			c0.2-0.2,0.5-0.3,0.8-0.3h3.9c0.7,0,1.3,0.1,2,0.4s1.1,0.6,1.6,1.1s0.8,1,1.1,1.6c0.3,0.6,0.4,1.3,0.4,2v7.4c0,0.7-0.1,1.3-0.4,2
			c-0.3,0.6-0.6,1.1-1.1,1.6s-1,0.8-1.6,1.1s-1.3,0.4-2,0.4h-2.7v6.7c0,0.3-0.1,0.6-0.3,0.8C188.5,64.3,188.2,64.4,187.9,64.4z
			 M194.5,44.1c0-0.7-0.3-1.4-0.8-1.9c-0.5-0.5-1.2-0.8-1.9-0.8h-2.7v12.8h2.7c0.7,0,1.4-0.3,1.9-0.8c0.5-0.5,0.8-1.2,0.8-1.9V44.1z
			"/>
		<path class="st1" d="M207.9,46.5v-2.6c0-0.5-0.1-1-0.4-1.5c-0.3-0.4-0.7-0.8-1.2-1c-0.5-0.2-1-0.3-1.5-0.2c-0.5,0.1-1,0.3-1.3,0.7
			c-0.2,0.2-0.5,0.3-0.8,0.3s-0.6-0.1-0.8-0.3c-0.2-0.2-0.3-0.5-0.3-0.8c0-0.3,0.1-0.6,0.3-0.8c0.7-0.7,1.6-1.2,2.6-1.4
			c1-0.2,1.9-0.1,2.9,0.3c0.9,0.4,1.7,1,2.2,1.8c0.6,0.8,0.8,1.7,0.8,2.7v11.5c0,0.3-0.1,0.6-0.3,0.8c-0.2,0.2-0.5,0.3-0.8,0.3h-3.9
			c-0.7,0-1.3-0.1-2-0.4s-1.1-0.6-1.6-1.1s-0.8-1-1.1-1.6s-0.4-1.3-0.4-2c0-0.7,0.1-1.3,0.4-2s0.6-1.1,1.1-1.6s1-0.8,1.6-1.1
			c0.6-0.3,1.3-0.4,2-0.4H207.9z M202.5,51.5c0,0.7,0.3,1.4,0.8,1.9c0.5,0.5,1.2,0.8,1.9,0.8h2.7v-5.4h-2.7c-0.7,0-1.4,0.3-1.9,0.8
			C202.8,50.1,202.5,50.8,202.5,51.5z"/>
		<path class="st1" d="M216.5,56.7c-0.3,0-0.6-0.1-0.8-0.3s-0.3-0.5-0.3-0.8V40.2c0-0.3,0.1-0.6,0.3-0.8c0.2-0.2,0.5-0.3,0.8-0.3
			h3.9c0.9,0,1.7,0.2,2.5,0.7c0.3,0.2,0.5,0.4,0.5,0.7c0.1,0.3,0,0.6-0.1,0.9c-0.2,0.3-0.4,0.5-0.7,0.6c-0.3,0.1-0.6,0-0.9-0.1
			c-0.4-0.2-0.9-0.3-1.4-0.3h-2.7v14.1c0,0.3-0.1,0.6-0.3,0.8S216.8,56.7,216.5,56.7z"/>
		<path class="st1" d="M232.7,46.5v-2.6c0-0.5-0.1-1-0.4-1.5c-0.3-0.4-0.7-0.8-1.2-1c-0.5-0.2-1-0.3-1.5-0.2c-0.5,0.1-1,0.3-1.3,0.7
			c-0.2,0.2-0.5,0.3-0.8,0.3s-0.6-0.1-0.8-0.3c-0.2-0.2-0.3-0.5-0.3-0.8c0-0.3,0.1-0.6,0.3-0.8c0.7-0.7,1.6-1.2,2.6-1.4
			c1-0.2,1.9-0.1,2.9,0.3c0.9,0.4,1.7,1,2.2,1.8c0.6,0.8,0.8,1.7,0.8,2.7v11.5c0,0.3-0.1,0.6-0.3,0.8c-0.2,0.2-0.5,0.3-0.8,0.3H230
			c-0.7,0-1.3-0.1-2-0.4s-1.1-0.6-1.6-1.1s-0.8-1-1.1-1.6c-0.3-0.6-0.4-1.3-0.4-2c0-0.7,0.1-1.3,0.4-2c0.3-0.6,0.6-1.1,1.1-1.6
			s1-0.8,1.6-1.1c0.6-0.3,1.3-0.4,2-0.4H232.7z M227.3,51.5c0,0.7,0.3,1.4,0.8,1.9c0.5,0.5,1.2,0.8,1.9,0.8h2.7v-5.4H230
			c-0.7,0-1.4,0.3-1.9,0.8C227.6,50.1,227.3,50.8,227.3,51.5z"/>
		<path class="st1" d="M246.2,41.1c-0.2-0.2-0.3-0.5-0.3-0.8c0-0.3,0.1-0.6,0.3-0.8c0.2-0.2,0.5-0.3,0.8-0.3h1.9v-6.7
			c0-0.3,0.1-0.6,0.3-0.8s0.5-0.3,0.8-0.3s0.6,0.1,0.8,0.3c0.2,0.2,0.3,0.5,0.3,0.8v6.7h2.7c0.3,0,0.6,0.1,0.8,0.3
			c0.2,0.2,0.3,0.5,0.3,0.8c0,0.3-0.1,0.6-0.3,0.8s-0.5,0.3-0.8,0.3h-2.7v10.3c0,0.7,0.3,1.4,0.8,1.9c0.5,0.5,1.2,0.8,1.9,0.8
			c0.3,0,0.6,0.1,0.8,0.3c0.2,0.2,0.3,0.5,0.3,0.8s-0.1,0.6-0.3,0.8s-0.5,0.3-0.8,0.3c-0.7,0-1.3-0.1-2-0.4
			c-0.6-0.3-1.1-0.6-1.6-1.1s-0.8-1-1.1-1.6c-0.3-0.6-0.4-1.3-0.4-2V41.4H247C246.7,41.4,246.4,41.3,246.2,41.1z"/>
		<path class="st1" d="M261.6,56.3c-1-0.4-1.7-1-2.3-1.8c-0.6-0.8-0.8-1.8-0.8-2.8v-7.7c0-0.7,0.1-1.3,0.4-2s0.6-1.1,1.1-1.6
			c0.5-0.5,1-0.8,1.6-1.1c0.6-0.3,1.3-0.4,2-0.4c0.7,0,1.3,0.1,2,0.4c0.6,0.3,1.1,0.6,1.6,1.1s0.8,1,1.1,1.6c0.3,0.6,0.4,1.3,0.4,2
			v3.9c0,0.3-0.1,0.6-0.3,0.8c-0.2,0.2-0.5,0.3-0.8,0.3h-6.6v2.7c0,0.5,0.1,1,0.4,1.5c0.3,0.5,0.7,0.8,1.2,1c0.5,0.2,1,0.3,1.6,0.2
			c0.5-0.1,1-0.3,1.4-0.7c0.2-0.2,0.5-0.3,0.8-0.3s0.6,0.1,0.8,0.3c0.2,0.2,0.3,0.5,0.3,0.8s-0.1,0.6-0.3,0.8
			c-0.7,0.7-1.6,1.2-2.6,1.4S262.6,56.7,261.6,56.3z M263.5,41.2c-0.7,0-1.4,0.3-1.9,0.8c-0.5,0.5-0.8,1.2-0.8,1.9v2.7h5.4v-2.7
			c0-0.7-0.3-1.4-0.8-1.9C264.9,41.5,264.3,41.2,263.5,41.2z"/>
		<path class="st1" d="M274.4,56.7c-0.3,0-0.6-0.1-0.8-0.3s-0.3-0.5-0.3-0.8V40.2c0-0.3,0.1-0.6,0.3-0.8c0.2-0.2,0.5-0.3,0.8-0.3
			h3.9c0.7,0,1.3,0.1,2,0.4s1.1,0.6,1.6,1.1s0.8,1,1.1,1.6c0.3,0.6,0.4,1.3,0.4,2v11.4c0,0.3-0.1,0.6-0.3,0.8
			c-0.2,0.2-0.5,0.3-0.8,0.3c-0.3,0-0.6-0.1-0.8-0.3c-0.2-0.2-0.3-0.5-0.3-0.8V44.1c0-0.7-0.3-1.4-0.8-1.9c-0.5-0.5-1.2-0.8-1.9-0.8
			h-2.7v14.1c0,0.3-0.1,0.6-0.3,0.8C275,56.6,274.7,56.7,274.4,56.7z"/>
		<path class="st1" d="M291,56.3c-1-0.4-1.7-1-2.3-1.8c-0.6-0.8-0.8-1.8-0.8-2.8v-7.7c0-0.7,0.1-1.3,0.4-2s0.6-1.1,1.1-1.6
			c0.5-0.5,1-0.8,1.6-1.1c0.6-0.3,1.3-0.4,2-0.4c0.7,0,1.3,0.1,2,0.4c0.6,0.3,1.1,0.6,1.6,1.1s0.8,1,1.1,1.6c0.3,0.6,0.4,1.3,0.4,2
			v3.9c0,0.3-0.1,0.6-0.3,0.8c-0.2,0.2-0.5,0.3-0.8,0.3h-6.6v2.7c0,0.5,0.1,1,0.4,1.5c0.3,0.5,0.7,0.8,1.2,1c0.5,0.2,1,0.3,1.6,0.2
			c0.5-0.1,1-0.3,1.4-0.7c0.2-0.2,0.5-0.3,0.8-0.3s0.6,0.1,0.8,0.3c0.2,0.2,0.3,0.5,0.3,0.8s-0.1,0.6-0.3,0.8
			c-0.7,0.7-1.6,1.2-2.6,1.4S292,56.7,291,56.3z M292.9,41.2c-0.7,0-1.4,0.3-1.9,0.8c-0.5,0.5-0.8,1.2-0.8,1.9v2.7h5.4v-2.7
			c0-0.7-0.3-1.4-0.8-1.9C294.3,41.5,293.7,41.2,292.9,41.2z"/>
		<path class="st1" d="M303.8,56.7c-0.3,0-0.6-0.1-0.8-0.3s-0.3-0.5-0.3-0.8V40.2c0-0.3,0.1-0.6,0.3-0.8c0.2-0.2,0.5-0.3,0.8-0.3
			h3.9c0.9,0,1.7,0.2,2.5,0.7c0.3,0.2,0.5,0.4,0.5,0.7c0.1,0.3,0,0.6-0.1,0.9c-0.2,0.3-0.4,0.5-0.7,0.6c-0.3,0.1-0.6,0-0.9-0.1
			c-0.4-0.2-0.9-0.3-1.4-0.3h-2.7v14.1c0,0.3-0.1,0.6-0.3,0.8S304.1,56.7,303.8,56.7z"/>
	</g>
	<g class="st0">
		<path class="st1" d="M189.4,87.2c-1-0.4-1.7-1-2.3-1.8c-0.6-0.8-0.8-1.8-0.8-2.8v-7.7c0-0.7,0.1-1.3,0.4-2
			c0.3-0.6,0.6-1.1,1.1-1.6s1-0.8,1.6-1.1c0.6-0.3,1.3-0.4,2-0.4s1.3,0.1,2,0.4c0.6,0.3,1.1,0.6,1.6,1.1s0.8,1,1.1,1.6
			s0.4,1.3,0.4,2v3.9c0,0.3-0.1,0.6-0.3,0.8c-0.2,0.2-0.5,0.3-0.8,0.3h-6.6v2.7c0,0.5,0.1,1,0.4,1.5c0.3,0.5,0.7,0.8,1.2,1
			c0.5,0.2,1,0.3,1.6,0.2c0.5-0.1,1-0.3,1.4-0.7c0.2-0.2,0.5-0.3,0.8-0.3c0.3,0,0.6,0.1,0.8,0.3c0.2,0.2,0.3,0.5,0.3,0.8
			s-0.1,0.6-0.3,0.8c-0.7,0.7-1.6,1.2-2.6,1.4S190.3,87.6,189.4,87.2z M191.3,72.1c-0.7,0-1.4,0.3-1.9,0.8c-0.5,0.5-0.8,1.2-0.8,1.9
			v2.7h5.4v-2.7c0-0.7-0.3-1.4-0.8-1.9C192.7,72.4,192,72.1,191.3,72.1z"/>
		<path class="st1" d="M202.1,87.6c-0.3,0-0.6-0.1-0.8-0.3c-0.2-0.2-0.3-0.5-0.3-0.8V71.1c0-0.3,0.1-0.6,0.3-0.8
			c0.2-0.2,0.5-0.3,0.8-0.3h3.9c0.7,0,1.3,0.1,2,0.4c0.6,0.3,1.1,0.6,1.6,1.1c0.5,0.5,0.8,1,1.1,1.6s0.4,1.3,0.4,2v11.4
			c0,0.3-0.1,0.6-0.3,0.8c-0.2,0.2-0.5,0.3-0.8,0.3c-0.3,0-0.6-0.1-0.8-0.3c-0.2-0.2-0.3-0.5-0.3-0.8V75c0-0.7-0.3-1.4-0.8-1.9
			s-1.2-0.8-1.9-0.8h-2.7v14.1c0,0.3-0.1,0.6-0.3,0.8C202.7,87.5,202.4,87.6,202.1,87.6z"/>
		<path class="st1" d="M226.2,87.2c-1-0.4-1.7-1-2.3-1.8c-0.6-0.8-0.8-1.8-0.8-2.8v-7.7c0-1,0.3-2,0.8-2.8c0.6-0.8,1.3-1.5,2.3-1.8
			c1-0.4,1.9-0.5,2.9-0.3c1,0.2,1.8,0.7,2.6,1.4c0.2,0.2,0.3,0.5,0.3,0.8s-0.1,0.6-0.3,0.8c-0.2,0.2-0.5,0.3-0.8,0.3
			s-0.6-0.1-0.8-0.3c-0.4-0.4-0.8-0.7-1.4-0.8c-0.5-0.1-1.1-0.1-1.6,0.2c-0.5,0.2-0.9,0.5-1.2,1c-0.3,0.5-0.4,1-0.4,1.5v7.7
			c0,0.5,0.1,1,0.4,1.5c0.3,0.5,0.7,0.8,1.2,1c0.5,0.2,1,0.3,1.6,0.2c0.5-0.1,1-0.3,1.4-0.7c0.2-0.2,0.5-0.3,0.8-0.3
			s0.6,0.1,0.8,0.3c0.2,0.2,0.3,0.5,0.3,0.8s-0.1,0.6-0.3,0.8c-0.7,0.7-1.6,1.2-2.6,1.4S227.1,87.6,226.2,87.2z"/>
		<path class="st1" d="M239,87.1c-0.6-0.3-1.1-0.6-1.6-1.1s-0.8-1-1.1-1.6c-0.3-0.6-0.4-1.3-0.4-2V71c0-0.3,0.1-0.6,0.3-0.8
			c0.2-0.2,0.5-0.3,0.8-0.3c0.3,0,0.6,0.1,0.8,0.3c0.2,0.2,0.3,0.5,0.3,0.8v11.4c0,0.7,0.3,1.4,0.8,1.9c0.5,0.5,1.2,0.8,1.9,0.8h2.7
			V71c0-0.3,0.1-0.6,0.3-0.8c0.2-0.2,0.5-0.3,0.8-0.3s0.6,0.1,0.8,0.3c0.2,0.2,0.3,0.5,0.3,0.8v15.3c0,0.3-0.1,0.6-0.3,0.8
			c-0.2,0.2-0.5,0.3-0.8,0.3h-3.9C240.2,87.5,239.6,87.3,239,87.1z"/>
		<path class="st1" d="M254,87.2c-1-0.4-1.7-1-2.3-1.8c-0.6-0.8-0.8-1.8-0.8-2.8v-7.7c0-0.7,0.1-1.3,0.4-2c0.3-0.6,0.6-1.1,1.1-1.6
			s1-0.8,1.6-1.1c0.6-0.3,1.3-0.4,2-0.4s1.3,0.1,2,0.4c0.6,0.3,1.1,0.6,1.6,1.1s0.8,1,1.1,1.6s0.4,1.3,0.4,2v3.9
			c0,0.3-0.1,0.6-0.3,0.8c-0.2,0.2-0.5,0.3-0.8,0.3h-6.6v2.7c0,0.5,0.1,1,0.4,1.5c0.3,0.5,0.7,0.8,1.2,1c0.5,0.2,1,0.3,1.6,0.2
			c0.5-0.1,1-0.3,1.4-0.7c0.2-0.2,0.5-0.3,0.8-0.3c0.3,0,0.6,0.1,0.8,0.3c0.2,0.2,0.3,0.5,0.3,0.8s-0.1,0.6-0.3,0.8
			c-0.7,0.7-1.6,1.2-2.6,1.4S255,87.6,254,87.2z M255.9,72.1c-0.7,0-1.4,0.3-1.9,0.8c-0.5,0.5-0.8,1.2-0.8,1.9v2.7h5.4v-2.7
			c0-0.7-0.3-1.4-0.8-1.9C257.3,72.4,256.7,72.1,255.9,72.1z"/>
		<path class="st1" d="M266.8,87.6c-0.3,0-0.6-0.1-0.8-0.3c-0.2-0.2-0.3-0.5-0.3-0.8V71.1c0-0.3,0.1-0.6,0.3-0.8
			c0.2-0.2,0.5-0.3,0.8-0.3h3.9c0.7,0,1.3,0.1,2,0.4c0.6,0.3,1.1,0.6,1.6,1.1c0.5,0.5,0.8,1,1.1,1.6s0.4,1.3,0.4,2v11.4
			c0,0.3-0.1,0.6-0.3,0.8c-0.2,0.2-0.5,0.3-0.8,0.3c-0.3,0-0.6-0.1-0.8-0.3c-0.2-0.2-0.3-0.5-0.3-0.8V75c0-0.7-0.3-1.4-0.8-1.9
			s-1.2-0.8-1.9-0.8h-2.7v14.1c0,0.3-0.1,0.6-0.3,0.8C267.3,87.5,267.1,87.6,266.8,87.6z"/>
		<path class="st1" d="M279.4,72c-0.2-0.2-0.3-0.5-0.3-0.8c0-0.3,0.1-0.6,0.3-0.8c0.2-0.2,0.5-0.3,0.8-0.3h1.9v-6.7
			c0-0.3,0.1-0.6,0.3-0.8s0.5-0.3,0.8-0.3s0.6,0.1,0.8,0.3c0.2,0.2,0.3,0.5,0.3,0.8V70h2.7c0.3,0,0.6,0.1,0.8,0.3
			c0.2,0.2,0.3,0.5,0.3,0.8c0,0.3-0.1,0.6-0.3,0.8s-0.5,0.3-0.8,0.3h-2.7v10.3c0,0.7,0.3,1.4,0.8,1.9c0.5,0.5,1.2,0.8,1.9,0.8
			c0.3,0,0.6,0.1,0.8,0.3c0.2,0.2,0.3,0.5,0.3,0.8s-0.1,0.6-0.3,0.8s-0.5,0.3-0.8,0.3c-0.7,0-1.3-0.1-2-0.4
			c-0.6-0.3-1.1-0.6-1.6-1.1s-0.8-1-1.1-1.6c-0.3-0.6-0.4-1.3-0.4-2V72.3h-1.9C279.9,72.3,279.6,72.2,279.4,72z"/>
		<path class="st1" d="M298.4,77.4v-2.6c0-0.5-0.1-1-0.4-1.5c-0.3-0.4-0.7-0.8-1.2-1c-0.5-0.2-1-0.3-1.5-0.2c-0.5,0.1-1,0.3-1.3,0.7
			c-0.2,0.2-0.5,0.3-0.8,0.3s-0.6-0.1-0.8-0.3c-0.2-0.2-0.3-0.5-0.3-0.8c0-0.3,0.1-0.6,0.3-0.8c0.7-0.7,1.6-1.2,2.6-1.4
			c1-0.2,1.9-0.1,2.9,0.3c0.9,0.4,1.7,1,2.2,1.8c0.6,0.8,0.8,1.7,0.8,2.7v11.5c0,0.3-0.1,0.6-0.3,0.8c-0.2,0.2-0.5,0.3-0.8,0.3h-3.9
			c-0.7,0-1.3-0.1-2-0.4s-1.1-0.6-1.6-1.1s-0.8-1-1.1-1.6s-0.4-1.3-0.4-2c0-0.7,0.1-1.3,0.4-2s0.6-1.1,1.1-1.6s1-0.8,1.6-1.1
			c0.6-0.3,1.3-0.4,2-0.4H298.4z M293,82.4c0,0.7,0.3,1.4,0.8,1.9c0.5,0.5,1.2,0.8,1.9,0.8h2.7v-5.4h-2.7c-0.7,0-1.4,0.3-1.9,0.8
			C293.2,81,293,81.7,293,82.4z"/>
	</g>
	<g class="st0">
		<path class="st1" d="M104.9,40.9c0.6,0,1.1,0.2,1.5,0.6c0.4,0.4,0.6,0.9,0.6,1.5c0,0.6-0.2,1.1-0.6,1.5s-0.9,0.6-1.5,0.6h-6.6
			v36.3c0,0.6-0.2,1.1-0.6,1.5c-0.4,0.4-0.9,0.6-1.5,0.6c-0.6,0-1.1-0.2-1.5-0.6c-0.4-0.4-0.6-0.9-0.6-1.5l0.1-36.3h-6.6
			c-0.6,0-1.1-0.2-1.5-0.6c-0.4-0.4-0.6-0.9-0.6-1.5c0-0.6,0.2-1.1,0.6-1.5c0.4-0.4,0.9-0.6,1.5-0.6H104.9z"/>
		<path class="st1" d="M115.5,83.6c-0.6,0-1.1-0.2-1.5-0.6c-0.4-0.4-0.6-0.9-0.6-1.5V42.7c0-0.6,0.2-1.1,0.6-1.5
			c0.4-0.4,0.9-0.6,1.5-0.6c0.6,0,1.1,0.2,1.5,0.6c0.4,0.4,0.6,0.9,0.6,1.5v38.7c0,0.6-0.2,1.1-0.6,1.5
			C116.7,83.4,116.2,83.6,115.5,83.6z"/>
		<path class="st1" d="M126.8,43c0-0.6,0.2-1.1,0.6-1.5s0.9-0.6,1.5-0.6h8c1.4,0,2.7,0.3,3.9,0.8c1.2,0.5,2.3,1.3,3.2,2.2
			c0.9,0.9,1.6,2,2.2,3.2c0.5,1.2,0.8,2.6,0.8,3.9v3.7c0,1.4-0.3,2.7-0.8,4c-0.5,1.2-1.3,2.3-2.2,3.2c-0.9,0.9-2,1.6-3.2,2.2
			c-1.2,0.5-2.6,0.8-3.9,0.8H131v16.5c0,0.6-0.2,1.1-0.6,1.5c-0.4,0.4-0.9,0.6-1.5,0.6c-0.6,0-1.1-0.2-1.5-0.6
			c-0.4-0.4-0.6-0.9-0.6-1.5V43z M142.8,51c0-0.8-0.2-1.6-0.5-2.3c-0.3-0.7-0.7-1.3-1.3-1.9c-0.5-0.5-1.2-1-1.9-1.3
			c-0.7-0.3-1.5-0.5-2.3-0.5H131v15.5h5.9c1.6,0,3-0.6,4.1-1.7c1.2-1.1,1.7-2.5,1.7-4.2V51z"/>
		<path class="st1" d="M164.9,78c1.5-1.1,2.3-2.6,2.5-4.5c0.1-0.9,0-1.8-0.3-2.6c-0.3-0.8-0.8-1.6-1.4-2.2L155,57.8
			c-1-1-1.8-2.2-2.3-3.6c-0.5-1.4-0.7-2.8-0.5-4.2c0.1-1.5,0.5-2.8,1.2-4.1c0.7-1.3,1.6-2.3,2.8-3.2c1.2-0.9,2.4-1.5,3.9-1.8
			c1.4-0.3,2.8-0.3,4.3,0c1.4,0.3,2.7,0.9,3.9,1.7c1.2,0.8,2.1,1.9,2.9,3.2c0.3,0.5,0.4,1,0.2,1.6c-0.2,0.6-0.5,1-1,1.3
			c-0.5,0.3-1,0.4-1.6,0.2c-0.6-0.2-1-0.5-1.3-1c-0.9-1.5-2.2-2.4-3.9-2.8c-1.7-0.4-3.3,0-4.7,1.1c-1.4,1-2.1,2.4-2.3,4.2
			c-0.1,1.7,0.4,3.2,1.6,4.5l10.7,11c1,1.1,1.8,2.3,2.3,3.7c0.5,1.4,0.7,2.9,0.6,4.4c-0.1,1.5-0.6,2.9-1.3,4.2
			c-0.7,1.3-1.7,2.4-2.9,3.3c-1.2,0.9-2.5,1.5-4,1.9c-1.5,0.4-2.9,0.4-4.4,0.1c-1.5-0.3-2.8-0.9-4-1.8c-1.2-0.9-2.2-1.9-3-3.2
			c-0.3-0.5-0.3-1.1-0.2-1.6c0.2-0.6,0.5-1,1-1.3c0.5-0.3,1-0.4,1.6-0.2c0.6,0.2,1,0.5,1.3,1c0.4,0.8,1,1.4,1.7,1.9
			c0.7,0.5,1.5,0.9,2.4,1C161.8,79.5,163.4,79.1,164.9,78z"/>
	</g>
	<path class="st1" d="M43.1,3v23.3c-2.6-0.7-5.3-1-8.2-1C16.8,25.3,2,40,2,58.2s14.8,32.9,32.9,32.9c2.8,0,5.6-0.4,8.2-1v23.8
		L354.7,128V3H43.1z M4.4,58.2c0-16.8,13.7-30.5,30.5-30.5s30.5,13.7,30.5,30.5S51.7,88.7,34.9,88.7S4.4,75,4.4,58.2z M350.4,123.5
		L47.3,109.7V88.6c12-4.9,20.5-16.7,20.5-30.5s-8.5-25.6-20.5-30.5V7.2h303.1L350.4,123.5L350.4,123.5z"/>
	<g>
		<path class="st1" d="M34.9,66.2c1.6,0,2.8-1.2,2.8-2.8v-19c0-1.5-1.2-2.8-2.8-2.8c-1.5,0-2.8,1.3-2.8,2.8v19
			C32.1,65,33.4,66.2,34.9,66.2z"/>
		<circle class="st1" cx="34.9" cy="70.5" r="3.2"/>
	</g>
</g>
</svg>
